mtllib 2352864.mtl
o 2352864_1
v 51 16 0.577
v 1.4 16 0.577
v 51 16 -0.577
v 1.4 16 -0.577
v 51 17 1.155
v 1.4 17 1.155
v 51 18 0.577
v 1.4 18 0.577
v 51 18 -0.577
v 1.4 18 -0.577
v 51 17 -1.155
v 1.4 17 -1.155
v 0.779 17.918 0.577
v 0.779 17.918 -0.577
v 0.2 17.678 -0.577
v 0.2 17.678 0.577
v -0.297 17.297 -0.577
v -0.297 17.297 0.577
v -0.678 16.8 -0.577
v -0.678 16.8 0.577
v -0.918 16.221 0.577
v -0.918 16.221 -0.577
v -1 15.6 -0.577
v -1 15.6 0.577
v 1.038 16.952 -1.155
v 0.7 16.812 -1.155
v 0.41 16.59 -1.155
v 0.188 16.3 -1.155
v 0.048 15.962 -1.155
v 0 15.6 -1.155
v 1.296 15.986 -0.577
v 1.2 15.946 -0.577
v 1.117 15.883 -0.577
v 1.054 15.8 -0.577
v 1.014 15.704 -0.577
v 1 15.6 -0.577
v 1.296 15.986 0.577
v 1.2 15.946 0.577
v 1.117 15.883 0.577
v 1.054 15.8 0.577
v 1.014 15.704 0.577
v 1 15.6 0.577
v 1.038 16.952 1.155
v 0.7 16.812 1.155
v 0.41 16.59 1.155
v 0.188 16.3 1.155
v 0.048 15.962 1.155
v 0 15.6 1.155
v 1 0 -0.577
v 1 0 0.577
v 0 0 1.155
v -1 0 0.577
v -1 0 -0.577
v 0 0 -1.155
vn 0 -1 0
vn 0 -0.5 0.866
vn 0 0.5 0.866
vn 0 1 0
vn 0 0.5 -0.866
vn 0 -0.5 -0.866
vn 1 0 0
vn -0.259 0.966 0
vn -0.5 0.866 0
vn -0.707 0.707 0
vn -0.866 0.5 0
vn -0.966 0.259 0
vn -1 0 0
vn -0.129 0.483 -0.866
vn -0.25 0.433 -0.866
vn -0.354 0.354 -0.866
vn -0.433 0.25 -0.866
vn -0.483 0.129 -0.866
vn -0.5 0 -0.866
vn 0.129 -0.483 -0.866
vn 0.25 -0.433 -0.866
vn 0.354 -0.354 -0.866
vn 0.433 -0.25 -0.866
vn 0.483 -0.129 -0.866
vn 0.5 0 -0.866
vn 0.259 -0.966 0
vn 0.5 -0.866 0
vn 0.707 -0.707 0
vn 0.866 -0.5 0
vn 0.966 -0.259 0
vn 0.129 -0.483 0.866
vn 0.25 -0.433 0.866
vn 0.354 -0.354 0.866
vn 0.433 -0.25 0.866
vn 0.483 -0.129 0.866
vn 0.5 0 0.866
vn -0.129 0.483 0.866
vn -0.25 0.433 0.866
vn -0.354 0.354 0.866
vn -0.433 0.25 0.866
vn -0.483 0.129 0.866
vn -0.5 0 0.866
g 2352864_1
usemtl 2352864_color_1
f 1//1 2//1 3//1
f 3//1 2//1 4//1
f 5//2 6//2 1//2
f 1//2 6//2 2//2
f 7//3 8//3 5//3
f 5//3 8//3 6//3
f 7//4 9//4 8//4
f 8//4 9//4 10//4
f 11//5 12//5 9//5
f 9//5 12//5 10//5
f 11//6 3//6 12//6
f 12//6 3//6 4//6
f 3//7 9//7 1//7
f 1//7 9//7 7//7
f 1//7 7//7 5//7
f 3//7 11//7 9//7
f 8//4 10//4 13//8
f 13//8 10//4 14//8
f 13//8 14//8 15//9
f 13//8 15//9 16//9
f 16//9 15//9 17//10
f 16//9 17//10 18//10
f 18//10 17//10 19//11
f 18//10 19//11 20//11
f 20//11 19//11 21//12
f 19//11 22//12 21//12
f 21//12 22//12 23//13
f 21//12 23//13 24//13
f 12//5 25//14 10//5
f 10//5 25//14 14//14
f 14//14 25//14 15//15
f 15//15 25//14 26//15
f 15//15 26//15 17//16
f 17//16 26//15 27//16
f 17//16 27//16 28//17
f 17//16 28//17 19//17
f 19//17 28//17 29//18
f 19//17 29//18 22//18
f 22//18 29//18 23//19
f 29//18 30//19 23//19
f 12//6 4//6 25//20
f 25//20 4//6 31//20
f 25//20 31//20 32//21
f 25//20 32//21 26//21
f 26//21 32//21 33//22
f 26//21 33//22 27//22
f 27//22 33//22 34//23
f 27//22 34//23 28//23
f 28//23 34//23 29//24
f 34//23 35//24 29//24
f 29//24 35//24 36//25
f 29//24 36//25 30//25
f 4//1 2//1 31//26
f 31//26 2//1 37//26
f 31//26 37//26 38//27
f 31//26 38//27 32//27
f 32//27 38//27 39//28
f 32//27 39//28 33//28
f 33//28 39//28 40//29
f 33//28 40//29 34//29
f 34//29 40//29 35//30
f 40//29 41//30 35//30
f 35//30 41//30 42//7
f 35//30 42//7 36//7
f 2//2 6//2 37//31
f 37//31 6//2 43//31
f 37//31 43//31 44//32
f 37//31 44//32 38//32
f 38//32 44//32 45//33
f 38//32 45//33 39//33
f 39//33 45//33 46//34
f 39//33 46//34 40//34
f 40//34 46//34 41//35
f 46//34 47//35 41//35
f 41//35 47//35 48//36
f 41//35 48//36 42//36
f 8//3 13//37 6//3
f 6//3 13//37 43//37
f 43//37 13//37 44//38
f 44//38 13//37 16//38
f 44//38 16//38 45//39
f 45//39 16//38 18//39
f 45//39 18//39 20//40
f 45//39 20//40 46//40
f 46//40 20//40 21//41
f 46//40 21//41 47//41
f 47//41 21//41 48//42
f 21//41 24//42 48//42
f 36//7 42//7 49//7
f 49//7 42//7 50//7
f 48//36 51//36 42//36
f 42//36 51//36 50//36
f 24//42 52//42 48//42
f 48//42 52//42 51//42
f 24//13 23//13 52//13
f 52//13 23//13 53//13
f 23//19 30//19 53//19
f 53//19 30//19 54//19
f 36//25 49//25 30//25
f 30//25 49//25 54//25
f 54//1 49//1 53//1
f 53//1 49//1 52//1
f 49//1 50//1 52//1
f 52//1 50//1 51//1
l 3 1
l 2 1
l 4 2
l 4 3
l 1 5
l 6 5
l 2 6
l 5 7
l 8 7
l 6 8
l 7 9
l 10 9
l 8 10
l 9 11
l 12 11
l 10 12
l 11 3
l 12 4
l 23 22
l 22 19
l 19 17
l 17 15
l 15 14
l 14 10
l 24 23
l 24 21
l 21 20
l 20 18
l 18 16
l 16 13
l 13 8
l 30 29
l 29 28
l 28 27
l 27 26
l 26 25
l 25 12
l 23 30
l 36 35
l 35 34
l 34 33
l 33 32
l 32 31
l 31 4
l 30 36
l 42 41
l 41 40
l 40 39
l 39 38
l 38 37
l 37 2
l 36 42
l 48 47
l 47 46
l 46 45
l 45 44
l 44 43
l 43 6
l 42 48
l 48 24
l 50 42
l 50 49
l 49 36
l 51 48
l 51 50
l 52 24
l 52 51
l 53 23
l 53 52
l 54 30
l 54 53
l 49 54
